<svg xmlns="http://www.w3.org/2000/svg" viewBox="0 0 1000 240" font-family="-apple-system, 'Segoe UI', Helvetica, Arial, sans-serif">
  <defs>
    <marker id="arr4" viewBox="0 0 10 10" refX="8" refY="5" markerWidth="7" markerHeight="7" orient="auto-start-reverse">
      <path d="M0,0 L10,5 L0,10 z" fill="#5a6285"/>
    </marker>
  </defs>
  <rect width="1000" height="240" rx="16" fill="#0e1220"/>

  <text x="110" y="44" font-size="11" fill="#98a0b8" text-anchor="middle">Phase 0</text>
  <text x="310" y="44" font-size="11" fill="#98a0b8" text-anchor="middle">Phase 1 · parallel</text>
  <text x="510" y="44" font-size="11" fill="#98a0b8" text-anchor="middle">Phase 2 · sequential</text>
  <text x="710" y="44" font-size="11" fill="#98a0b8" text-anchor="middle">Phase 3 · parallel</text>
  <text x="900" y="44" font-size="11" fill="#98a0b8" text-anchor="middle">Phase 4</text>

  <rect x="40" y="124" width="140" height="40" rx="10" fill="#171c30" stroke="#2a3152"/>
  <text x="110" y="148.5" font-size="12" fill="#e8eaf2" text-anchor="middle">0 · Inventory</text>

  <rect x="240" y="96" width="140" height="40" rx="10" fill="#171c30" stroke="#2a3152"/>
  <text x="310" y="120.5" font-size="12" fill="#e8eaf2" text-anchor="middle">1 · Promise</text>
  <rect x="240" y="152" width="140" height="40" rx="10" fill="#171c30" stroke="#2a3152"/>
  <text x="310" y="176.5" font-size="12" fill="#e8eaf2" text-anchor="middle">2 · Fold</text>

  <rect x="440" y="124" width="140" height="40" rx="10" fill="#171c30" stroke="#8b7cf6"/>
  <text x="510" y="148.5" font-size="12" fill="#e8eaf2" text-anchor="middle">3 · Narrative</text>
  <text x="510" y="186" font-size="10" fill="#98a0b8" text-anchor="middle">walks in scroll order,</text>
  <text x="510" y="200" font-size="10" fill="#98a0b8" text-anchor="middle">carrying the pending question</text>

  <rect x="640" y="72" width="140" height="40" rx="10" fill="#171c30" stroke="#2a3152"/>
  <text x="710" y="96.5" font-size="12" fill="#e8eaf2" text-anchor="middle">4 · Trust</text>
  <rect x="640" y="128" width="140" height="40" rx="10" fill="#171c30" stroke="#2a3152"/>
  <text x="710" y="152.5" font-size="12" fill="#e8eaf2" text-anchor="middle">5 · Pricing</text>
  <rect x="640" y="184" width="140" height="40" rx="10" fill="#171c30" stroke="#2a3152"/>
  <text x="710" y="208.5" font-size="12" fill="#e8eaf2" text-anchor="middle">6 · Action</text>

  <rect x="840" y="124" width="120" height="40" rx="10" fill="#171c30" stroke="#3ecf8e"/>
  <text x="900" y="148.5" font-size="12" fill="#e8eaf2" text-anchor="middle">Synthesis</text>
  <text x="900" y="182" font-size="10" fill="#98a0b8" text-anchor="middle">dedup · apply gates · score</text>

  <path d="M180,144 C208,144 208,116 234,116" fill="none" stroke="#39406a" marker-end="url(#arr4)"/>
  <path d="M180,144 C208,144 208,172 234,172" fill="none" stroke="#39406a" marker-end="url(#arr4)"/>
  <path d="M380,116 C408,116 408,144 434,144" fill="none" stroke="#39406a" marker-end="url(#arr4)"/>
  <path d="M380,172 C408,172 408,144 434,144" fill="none" stroke="#39406a" marker-end="url(#arr4)"/>
  <path d="M580,144 C608,144 608,92 634,92" fill="none" stroke="#39406a" marker-end="url(#arr4)"/>
  <path d="M580,144 L634,144" fill="none" stroke="#39406a" marker-end="url(#arr4)"/>
  <path d="M580,144 C608,144 608,204 634,204" fill="none" stroke="#39406a" marker-end="url(#arr4)"/>
  <path d="M780,92 C808,92 808,144 834,144" fill="none" stroke="#39406a" marker-end="url(#arr4)"/>
  <path d="M780,148 L834,148" fill="none" stroke="#39406a" marker-end="url(#arr4)"/>
  <path d="M780,204 C808,204 808,152 834,152" fill="none" stroke="#39406a" marker-end="url(#arr4)"/>
</svg>
